<svg xmlns="http://www.w3.org/2000/svg" viewBox="0 0 400 300">
  <rect width="400" height="300" fill="#FBF3DC"/>
  <g stroke="#D1347B" stroke-width="2.5" stroke-linecap="round" stroke-linejoin="round" fill="none" opacity="0.7">
    <path d="M200 100 C186 110 184 128 200 138 C216 128 214 110 200 100 Z"/>
    <path d="M200 138 C178 128 158 132 152 150 C166 160 186 156 200 138 Z"/>
    <path d="M200 138 C222 128 242 132 248 150 C234 160 214 156 200 138 Z"/>
    <path d="M200 138 C188 152 186 172 198 190 C206 180 208 164 200 138 Z"/>
    <path d="M200 138 C212 152 214 172 202 190 C194 180 192 164 200 138 Z"/>
  </g>
  <text x="200" y="235" font-family="Poppins, sans-serif" font-size="15" fill="#8A8371" text-anchor="middle">Foto próximamente</text>
</svg>
